<svg xmlns="http://www.w3.org/2000/svg" viewBox="0 0 1200 630">
  <defs>
    <linearGradient id="g1" x1="0%" y1="0%" x2="100%" y2="100%">
      <stop offset="0%" stop-color="#064e3b"/>
      <stop offset="100%" stop-color="#0f172a"/>
    </linearGradient>
    <linearGradient id="g2" x1="0%" y1="0%" x2="100%" y2="0%">
      <stop offset="0%" stop-color="#059669"/>
      <stop offset="100%" stop-color="#2dd4bf"/>
    </linearGradient>
  </defs>
  <rect width="1200" height="630" fill="url(#g1)"/>
  <g stroke="rgba(255,255,255,0.05)" stroke-width="1">
    <line x1="0" y1="63" x2="1200" y2="63"/><line x1="0" y1="126" x2="1200" y2="126"/>
    <line x1="0" y1="189" x2="1200" y2="189"/><line x1="0" y1="252" x2="1200" y2="252"/>
    <line x1="0" y1="315" x2="1200" y2="315"/><line x1="0" y1="378" x2="1200" y2="378"/>
    <line x1="0" y1="441" x2="1200" y2="441"/><line x1="0" y1="504" x2="1200" y2="504"/>
    <line x1="0" y1="567" x2="1200" y2="567"/>
    <line x1="63" y1="0" x2="63" y2="630"/><line x1="126" y1="0" x2="126" y2="630"/>
    <line x1="252" y1="0" x2="252" y2="630"/><line x1="504" y1="0" x2="504" y2="630"/>
    <line x1="756" y1="0" x2="756" y2="630"/><line x1="1008" y1="0" x2="1008" y2="630"/>
  </g>
  <rect x="80" y="260" width="160" height="4" rx="2" fill="url(#g2)"/>
  <text x="80" y="240" font-family="Inter,system-ui,sans-serif" font-size="22" font-weight="600" fill="#059669" letter-spacing="3">IA · NEGÓCIOS</text>
  <text x="80" y="318" font-family="Inter,system-ui,sans-serif" font-size="46" font-weight="800" fill="white" opacity="0.95">O carro que reserva</text>
  <text x="80" y="375" font-family="Inter,system-ui,sans-serif" font-size="46" font-weight="800" fill="white" opacity="0.95">o seu hotel</text>
  <text x="80" y="560" font-family="Inter,system-ui,sans-serif" font-size="20" fill="rgba(255,255,255,0.4)">hey-milhao.vercel.app</text>
  <circle cx="1060" cy="130" r="220" fill="#059669" opacity="0.07"/>
  <circle cx="1060" cy="130" r="130" fill="#2dd4bf" opacity="0.05"/>
</svg>
