<svg xmlns="http://www.w3.org/2000/svg" viewBox="0 0 1200 630">
  <defs>
    <linearGradient id="g1" x1="0%" y1="0%" x2="100%" y2="100%">
      <stop offset="0%" stop-color="#064e3b"/>
      <stop offset="100%" stop-color="#0f172a"/>
    </linearGradient>
    <linearGradient id="g2" x1="0%" y1="0%" x2="100%" y2="0%">
      <stop offset="0%" stop-color="#059669"/>
      <stop offset="100%" stop-color="#2dd4bf"/>
    </linearGradient>
  </defs>
  <rect width="1200" height="630" fill="url(#g1)"/>
  <g stroke="rgba(255,255,255,0.04)" stroke-width="1">
    <line x1="0" y1="105" x2="1200" y2="105"/><line x1="0" y1="210" x2="1200" y2="210"/>
    <line x1="0" y1="315" x2="1200" y2="315"/><line x1="0" y1="420" x2="1200" y2="420"/>
    <line x1="0" y1="525" x2="1200" y2="525"/>
    <line x1="200" y1="0" x2="200" y2="630"/><line x1="500" y1="0" x2="500" y2="630"/>
    <line x1="800" y1="0" x2="800" y2="630"/><line x1="1100" y1="0" x2="1100" y2="630"/>
  </g>
  <!-- ghost big number -->
  <text x="60" y="360" font-family="Inter,system-ui,sans-serif" font-size="260" font-weight="900" fill="white" opacity="0.05">7M</text>
  <!-- car icon -->
  <g transform="translate(740, 140)" fill="none" stroke="url(#g2)" stroke-width="7" stroke-linecap="round" stroke-linejoin="round" opacity="0.65">
    <rect x="20" y="70" width="280" height="120" rx="18"/>
    <path d="M55 70 L90 22 L230 22 L265 70"/>
    <circle cx="85" cy="200" r="30" fill="#0a2a20" stroke-width="7"/>
    <circle cx="235" cy="200" r="30" fill="#0a2a20" stroke-width="7"/>
    <line x1="110" y1="120" x2="210" y2="120" stroke-width="5" opacity="0.5"/>
  </g>
  <!-- accent bar -->
  <rect x="80" y="268" width="220" height="5" rx="2.5" fill="url(#g2)"/>
  <text x="80" y="250" font-family="Inter,system-ui,sans-serif" font-size="18" font-weight="700" fill="#34d399" letter-spacing="4">IA · CHINA · EV</text>
  <text x="80" y="335" font-family="Inter,system-ui,sans-serif" font-size="54" font-weight="800" fill="white">O carro que</text>
  <text x="80" y="400" font-family="Inter,system-ui,sans-serif" font-size="54" font-weight="800" fill="white">reserva o hotel</text>
  <text x="80" y="470" font-family="Inter,system-ui,sans-serif" font-size="26" fill="rgba(255,255,255,0.5)">7M veículos · Doubao · HyperOS · Qwen</text>
  <text x="80" y="580" font-family="Inter,system-ui,sans-serif" font-size="18" fill="rgba(255,255,255,0.25)">hey-milhao.vercel.app</text>
</svg>
